<svg version="1.1" viewBox="0.0 0.0 960.0 720.0" fill="none" stroke="none" stroke-linecap="square" stroke-miterlimit="10" xmlns:xlink="http://www.w3.org/1999/xlink" xmlns="http://www.w3.org/2000/svg"><clipPath id="p.0"><path d="m0 0l960.0 0l0 720.0l-960.0 0l0 -720.0z" clip-rule="nonzero"/></clipPath><g clip-path="url(#p.0)"><path fill="#000000" fill-opacity="0.0" d="m0 0l960.0 0l0 720.0l-960.0 0z" fill-rule="evenodd"/><path fill="#00bfa5" d="m9.343832 8.175853l943.6483 0l0 704.8163l-943.6483 0z" fill-rule="evenodd"/><path stroke="#000000" stroke-width="1.0" stroke-linejoin="round" stroke-linecap="butt" d="m9.343832 8.175853l943.6483 0l0 704.8163l-943.6483 0z" fill-rule="evenodd"/><path fill="#dd2c00" d="m175.94884 235.99968c-6.066162 -44.059723 13.849609 -87.676254 51.296356 -112.34161c37.446762 -24.665352 85.85716 -26.05378 124.68904 -3.576126l0 0c13.7547 -25.619957 38.930664 -43.308853 67.91232 -47.715897c28.981659 -4.407036 58.364807 4.98542 79.26123 25.33622l0 0c11.71759 -23.228294 34.725647 -38.83478 60.85962 -41.28136c26.133911 -2.4465828 51.69507 8.61301 67.61279 29.254177l0 0c21.170044 -24.620506 54.851807 -34.98665 86.47113 -26.61298c31.619324 8.373669 55.497192 33.983173 61.301575 65.74724l0 0c25.935608 6.992462 47.53943 24.767975 59.229797 48.733963c11.690308 23.965988 12.320435 51.77147 1.727417 76.2325l0 0c25.541016 32.853714 31.515991 76.63136 15.69519 114.99565c-15.820801 38.364258 -51.060425 65.55127 -92.56787 71.41513c-0.2925415 36.007446 -20.271423 69.047424 -52.23584 86.38458c-31.964355 17.337158 -70.92279 16.264221 -101.8587 -2.8052368c-13.177246 43.12506 -50.267517 74.85608 -95.24625 81.48395c-44.97873 6.6279297 -89.78247 -13.035522 -115.05411 -50.494873c-30.97757 18.463562 -68.148254 23.78241 -103.12692 14.756653c-34.9787 -9.025757 -64.81891 -31.635742 -82.78917 -62.729553l0 0c-31.654984 3.6614685 -62.261063 -12.548828 -76.62865 -40.585846c-14.367584 -28.036987 -9.438194 -61.932312 12.341751 -84.86398l0 0c-28.238586 -16.427185 -42.647667 -49.024292 -35.713455 -80.79321c6.9342194 -31.76889 33.64041 -55.510605 66.19231 -58.84471z" fill-rule="evenodd"/><path fill="#dd2c00" d="m343.29648 670.5236c0 8.403137 -6.8120728 15.21521 -15.21521 15.21521c-8.403137 0 -15.2152405 -6.8120728 -15.2152405 -15.21521c0 -8.403137 6.8121033 -15.21521 15.2152405 -15.21521c8.403137 0 15.21521 6.8120728 15.21521 15.21521z" fill-rule="evenodd"/><path fill="#dd2c00" d="m366.9086 652.2345c0 16.806274 -13.624176 30.43042 -30.43045 30.43042c-16.806274 0 -30.43045 -13.6241455 -30.43045 -30.43042c0 -16.806274 13.624176 -30.43042 30.43045 -30.43042c16.806274 0 30.43045 13.6241455 30.43045 30.43042z" fill-rule="evenodd"/><path fill="#dd2c00" d="m403.21765 606.29034c0 25.209412 -20.43628 45.64569 -45.64569 45.64569c-25.209381 0 -45.64566 -20.43628 -45.64566 -45.64569c0 -25.209412 20.43628 -45.64569 45.64566 -45.64569c25.209412 0 45.64569 20.43628 45.64569 45.64569z" fill-rule="evenodd"/><path fill="#000000" fill-opacity="0.0" d="m189.76167 385.28384l0 0c-15.396011 1.1911621 -30.79036 -2.3253174 -44.116135 -10.077301m83.039825 120.35724c-6.1910553 2.43573 -12.680634 4.0574036 -19.301376 4.8232117m185.61507 48.16684l0 0c-4.6564636 -6.9020996 -8.555054 -14.277588 -11.629425 -22.000793m226.6936 -32.86075c-0.6847534 8.186554 -2.241272 16.278381 -4.6436157 24.140533m96.9765 -173.29688l0 0c34.905334 16.788757 56.93286 51.888275 56.62146 90.22269m76.93628 -186.31595c-5.652893 13.053406 -14.282593 24.632935 -25.212585 33.83069m-35.288574 -159.36084l0 0c0.96325684 5.27137 1.4090576 10.621971 1.3312378 15.977623m-162.35114 -34.614754l0 0c3.2851562 -7.3711243 7.6359863 -14.234375 12.916931 -20.376045m-133.72433 30.084885l0 0c1.340271 -6.09153 3.4416199 -11.994537 6.2557373 -17.573051m-148.03702 23.543503l0 0c8.216797 4.756241 15.818451 10.480904 22.63797 17.04824m-194.57864 116.94006l0 0c-1.7936707 -5.8668365 -3.114746 -11.86467 -3.9508362 -17.937393" fill-rule="evenodd"/><path stroke="#000000" stroke-width="1.0" stroke-linejoin="round" stroke-linecap="butt" d="m175.94884 235.99968c-6.066162 -44.059723 13.849609 -87.676254 51.296356 -112.34161c37.446762 -24.665352 85.85716 -26.05378 124.68904 -3.576126l0 0c13.7547 -25.619957 38.930664 -43.308853 67.91232 -47.715897c28.981659 -4.407036 58.364807 4.98542 79.26123 25.33622l0 0c11.71759 -23.228294 34.725647 -38.83478 60.85962 -41.28136c26.133911 -2.4465828 51.69507 8.61301 67.61279 29.254177l0 0c21.170044 -24.620506 54.851807 -34.98665 86.47113 -26.61298c31.619324 8.373669 55.497192 33.983173 61.301575 65.74724l0 0c25.935608 6.992462 47.53943 24.767975 59.229797 48.733963c11.690308 23.965988 12.320435 51.77147 1.727417 76.2325l0 0c25.541016 32.853714 31.515991 76.63136 15.69519 114.99565c-15.820801 38.364258 -51.060425 65.55127 -92.56787 71.41513c-0.2925415 36.007446 -20.271423 69.047424 -52.23584 86.38458c-31.964355 17.337158 -70.92279 16.264221 -101.8587 -2.8052368c-13.177246 43.12506 -50.267517 74.85608 -95.24625 81.48395c-44.97873 6.6279297 -89.78247 -13.035522 -115.05411 -50.494873c-30.97757 18.463562 -68.148254 23.78241 -103.12692 14.756653c-34.9787 -9.025757 -64.81891 -31.635742 -82.78917 -62.729553l0 0c-31.654984 3.6614685 -62.261063 -12.548828 -76.62865 -40.585846c-14.367584 -28.036987 -9.438194 -61.932312 12.341751 -84.86398l0 0c-28.238586 -16.427185 -42.647667 -49.024292 -35.713455 -80.79321c6.9342194 -31.76889 33.64041 -55.510605 66.19231 -58.84471z" fill-rule="evenodd"/><path stroke="#000000" stroke-width="1.0" stroke-linejoin="round" stroke-linecap="butt" d="m343.29648 670.5236c0 8.403137 -6.8120728 15.21521 -15.21521 15.21521c-8.403137 0 -15.2152405 -6.8120728 -15.2152405 -15.21521c0 -8.403137 6.8121033 -15.21521 15.2152405 -15.21521c8.403137 0 15.21521 6.8120728 15.21521 15.21521z" fill-rule="evenodd"/><path stroke="#000000" stroke-width="1.0" stroke-linejoin="round" stroke-linecap="butt" d="m366.9086 652.2345c0 16.806274 -13.624176 30.43042 -30.43045 30.43042c-16.806274 0 -30.43045 -13.6241455 -30.43045 -30.43042c0 -16.806274 13.624176 -30.43042 30.43045 -30.43042c16.806274 0 30.43045 13.6241455 30.43045 30.43042z" fill-rule="evenodd"/><path stroke="#000000" stroke-width="1.0" stroke-linejoin="round" stroke-linecap="butt" d="m403.21765 606.29034c0 25.209412 -20.43628 45.64569 -45.64569 45.64569c-25.209381 0 -45.64566 -20.43628 -45.64566 -45.64569c0 -25.209412 20.43628 -45.64569 45.64566 -45.64569c25.209412 0 45.64569 20.43628 45.64569 45.64569z" fill-rule="evenodd"/><path stroke="#000000" stroke-width="1.0" stroke-linejoin="round" stroke-linecap="butt" d="m189.76167 385.28384l0 0c-15.396011 1.1911621 -30.79036 -2.3253174 -44.116135 -10.077301m83.039825 120.35724c-6.1910553 2.43573 -12.680634 4.0574036 -19.301376 4.8232117m185.61507 48.16684l0 0c-4.6564636 -6.9020996 -8.555054 -14.277588 -11.629425 -22.000793m226.6936 -32.86075c-0.6847534 8.186554 -2.241272 16.278381 -4.6436157 24.140533m96.9765 -173.29688l0 0c34.905334 16.788757 56.93286 51.888275 56.62146 90.22269m76.93628 -186.31595c-5.652893 13.053406 -14.282593 24.632935 -25.212585 33.83069m-35.288574 -159.36084l0 0c0.96325684 5.27137 1.4090576 10.621971 1.3312378 15.977623m-162.35114 -34.614754l0 0c3.2851562 -7.3711243 7.6359863 -14.234375 12.916931 -20.376045m-133.72433 30.084885l0 0c1.340271 -6.09153 3.4416199 -11.994537 6.2557373 -17.573051m-148.03702 23.543503l0 0c8.216797 4.756241 15.818451 10.480904 22.63797 17.04824m-194.57864 116.94006l0 0c-1.7936707 -5.8668365 -3.114746 -11.86467 -3.9508362 -17.937393" fill-rule="evenodd"/><path fill="#000000" fill-opacity="0.0" d="m219.86089 209.05249l522.61414 0l0 326.99213l-522.61414 0z" fill-rule="evenodd"/><path fill="#ffffff" d="m248.26714 310.2125l-18.234375 -68.71875l9.328125 0l10.453125 45.046875q1.6875 7.078125 2.90625 14.0625q2.625 -11.015625 3.09375 -12.703125l13.07814 -46.40625l10.96875 0l9.84375 34.78125q3.703125 12.9375 5.34375 24.328125q1.3125 -6.515625 3.421875 -14.953125l10.78125 -44.15625l9.140625 0l-18.84375 68.71875l-8.765625 0l-14.484375 -52.359375q-1.828125 -6.5625 -2.15625 -8.0625q-1.078125 4.734375 -2.015625 8.0625l-14.578125 52.359375l-9.281265 0zm77.531265 0l0 -68.71875l8.4375 0l0 24.65625q5.90625 -6.84375 14.90625 -6.84375q5.53125 0 9.609375 2.1875q4.078125 2.171875 5.828125 6.015625q1.765625 3.84375 1.765625 11.15625l0 31.546875l-8.4375 0l0 -31.546875q0 -6.328125 -2.75 -9.203125q-2.734375 -2.890625 -7.75 -2.890625q-3.75 0 -7.0625 1.953125q-3.296875 1.9375 -4.703125 5.265625q-1.40625 3.328125 -1.40625 9.1875l0 27.234375l-8.4375 0zm85.875 -6.140625q-4.6875 3.984375 -9.03125 5.625q-4.328125 1.640625 -9.296875 1.640625q-8.203125 0 -12.609375 -4.0q-4.40625 -4.015625 -4.40625 -10.25q0 -3.65625 1.65625 -6.671875q1.671875 -3.03125 4.359375 -4.859375q2.703125 -1.828125 6.078125 -2.765625q2.484375 -0.65625 7.5 -1.265625q10.21875 -1.21875 15.046875 -2.90625q0.046875 -1.734375 0.046875 -2.203125q0 -5.15625 -2.390625 -7.265625q-3.234375 -2.859375 -9.609375 -2.859375q-5.953125 0 -8.796875 2.09375q-2.828125 2.078125 -4.1875 7.375l-8.25 -1.125q1.125 -5.296875 3.703125 -8.546875q2.578125 -3.265625 7.453125 -5.015625q4.875 -1.765625 11.296875 -1.765625q6.375 0 10.359375 1.5q3.984375 1.5 5.859375 3.78125q1.875 2.265625 2.625 5.734375q0.421875 2.15625 0.421875 7.78125l0 11.25q0 11.765625 0.53125 14.890625q0.546875 3.109375 2.140625 5.96875l-8.8125 0q-1.3125 -2.625 -1.6875 -6.140625zm-0.703125 -18.84375q-4.59375 1.875 -13.78125 3.1875q-5.203125 0.75 -7.359375 1.6875q-2.15625 0.9375 -3.328125 2.75q-1.171875 1.796875 -1.171875 4.0q0 3.375 2.546875 5.625q2.5625 2.25 7.484375 2.25q4.875 0 8.671875 -2.125q3.796875 -2.140625 5.578125 -5.84375q1.359375 -2.859375 1.359375 -8.4375l0 -3.09375zm40.03125 17.4375l1.21875 7.453125q-3.5625 0.75 -6.375 0.75q-4.59375 0 -7.125 -1.453125q-2.53125 -1.453125 -3.5625 -3.8125q-1.03125 -2.375 -1.03125 -9.96875l0 -28.640625l-6.1875 0l0 -6.5625l6.1875 0l0 -12.328125l8.390625 -5.0625l0 17.390625l8.484375 0l0 6.5625l-8.484375 0l0 29.109375q0 3.609375 0.4375 4.640625q0.453125 1.03125 1.453125 1.640625q1.015625 0.609375 2.890625 0.609375q1.40625 0 3.703125 -0.328125zm34.96875 -51.46875l0 -9.703125l8.4375 0l0 9.703125l-8.4375 0zm0 59.015625l0 -49.78125l8.4375 0l0 49.78125l-8.4375 0zm17.90625 -14.859375l8.34375 -1.3125q0.703125 5.015625 3.90625 7.6875q3.21875 2.671875 8.984375 2.671875q5.8125 0 8.625 -2.359375q2.8125 -2.375 2.8125 -5.5625q0 -2.859375 -2.484375 -4.5q-1.734375 -1.125 -8.625 -2.859375q-9.28125 -2.34375 -12.875 -4.046875q-3.578125 -1.71875 -5.4375 -4.734375q-1.84375 -3.03125 -1.84375 -6.6875q0 -3.328125 1.515625 -6.15625q1.53125 -2.84375 4.15625 -4.71875q1.96875 -1.453125 5.359375 -2.453125q3.40625 -1.015625 7.296875 -1.015625q5.859375 0 10.28125 1.6875q4.4375 1.6875 6.546875 4.578125q2.109375 2.875 2.90625 7.703125l-8.25 1.125q-0.5625 -3.84375 -3.265625 -6.0q-2.6875 -2.15625 -7.609375 -2.15625q-5.8125 0 -8.296875 1.921875q-2.484375 1.921875 -2.484375 4.5q0 1.640625 1.03125 2.953125q1.03125 1.359375 3.234375 2.25q1.265625 0.46875 7.453125 2.15625q8.953125 2.390625 12.484375 3.921875q3.546875 1.515625 5.5625 4.421875q2.015625 2.90625 2.015625 7.21875q0 4.21875 -2.46875 7.953125q-2.453125 3.71875 -7.09375 5.765625q-4.640625 2.03125 -10.5 2.03125q-9.703125 0 -14.796875 -4.03125q-5.078125 -4.03125 -6.484375 -11.953125z" fill-rule="nonzero"/><path fill="#ffffff" d="m232.04839 400.32187q0 -13.828125 7.6875 -20.484375q6.421875 -5.53125 15.65625 -5.53125q10.26564 0 16.781265 6.734375q6.515625 6.71875 6.515625 18.578125q0 9.609375 -2.890625 15.125q-2.875 5.5 -8.390625 8.546875q-5.5 3.046875 -12.01564 3.046875q-10.453125 0 -16.90625 -6.703125q-6.4375 -6.703125 -6.4375 -19.3125zm8.671875 0q0 9.5625 4.171875 14.328125q4.171875 4.75 10.5 4.75q6.2812653 0 10.45314 -4.78125q4.171875 -4.78125 4.171875 -14.578125q0 -9.234375 -4.203125 -13.984375q-4.1875 -4.765625 -10.42189 -4.765625q-6.328125 0 -10.5 4.734375q-4.171875 4.734375 -4.171875 14.296875zm47.85939 43.96875l0 -68.859375l7.6875 0l0 6.46875q2.71875 -3.796875 6.140625 -5.6875q3.421875 -1.90625 8.296875 -1.90625q6.375 0 11.25 3.28125q4.875 3.28125 7.359375 9.265625q2.484375 5.96875 2.484375 13.09375q0 7.640625 -2.75 13.765625q-2.734375 6.109375 -7.96875 9.375q-5.21875 3.25 -10.984375 3.25q-4.21875 0 -7.578125 -1.78125q-3.34375 -1.78125 -5.5 -4.5l0 24.234375l-8.4375 0zm7.640625 -43.6875q0 9.609375 3.890625 14.203125q3.890625 4.59375 9.421875 4.59375q5.625 0 9.625 -4.75q4.015625 -4.765625 4.015625 -14.75q0 -9.515625 -3.921875 -14.25q-3.90625 -4.734375 -9.34375 -4.734375q-5.390625 0 -9.546875 5.046875q-4.140625 5.03125 -4.140625 14.640625zm79.828125 8.578125l8.71875 1.078125q-2.0625 7.640625 -7.640625 11.859375q-5.578125 4.21875 -14.25 4.21875q-10.921875 0 -17.328125 -6.71875q-6.390625 -6.734375 -6.390625 -18.875q0 -12.5625 6.46875 -19.5q6.46875 -6.9375 16.78125 -6.9375q9.984375 0 16.3125 6.796875q6.328125 6.796875 6.328125 19.125q0 0.75 -0.046875 2.25l-37.125 0q0.46875 8.203125 4.640625 12.5625q4.171875 4.359375 10.40625 4.359375q4.640625 0 7.921875 -2.4375q3.28125 -2.4375 5.203125 -7.78125zm-27.703125 -13.640625l27.796875 0q-0.5625 -6.28125 -3.1875 -9.421875q-4.03125 -4.875 -10.453125 -4.875q-5.8125 0 -9.78125 3.890625q-3.953125 3.890625 -4.375 10.40625zm47.015625 29.671875l0 -49.78125l7.59375 0l0 7.078125q5.484375 -8.203125 15.84375 -8.203125q4.5 0 8.265625 1.625q3.78125 1.609375 5.65625 4.234375q1.875 2.625 2.625 6.234375q0.46875 2.34375 0.46875 8.203125l0 30.609375l-8.4375 0l0 -30.28125q0 -5.15625 -0.984375 -7.703125q-0.984375 -2.5625 -3.5 -4.078125q-2.5 -1.53125 -5.875 -1.53125q-5.390625 0 -9.3125 3.421875q-3.90625 3.421875 -3.90625 12.984375l0 27.1875l-8.4375 0zm53.296875 0l0 -49.78125l7.59375 0l0 7.546875q2.90625 -5.296875 5.359375 -6.984375q2.46875 -1.6875 5.421875 -1.6875q4.265625 0 8.671875 2.71875l-2.90625 7.828125q-3.09375 -1.828125 -6.1875 -1.828125q-2.765625 0 -4.96875 1.671875q-2.203125 1.65625 -3.140625 4.609375q-1.40625 4.5 -1.40625 9.84375l0 26.0625l-8.4375 0zm28.921875 -24.890625q0 -13.828125 7.6875 -20.484375q6.421875 -5.53125 15.65625 -5.53125q10.265625 0 16.78125 6.734375q6.515625 6.71875 6.515625 18.578125q0 9.609375 -2.890625 15.125q-2.875 5.5 -8.390625 8.546875q-5.5 3.046875 -12.015625 3.046875q-10.453125 0 -16.90625 -6.703125q-6.4375 -6.703125 -6.4375 -19.3125zm8.671875 0q0 9.5625 4.171875 14.328125q4.171875 4.75 10.5 4.75q6.28125 0 10.453125 -4.78125q4.171875 -4.78125 4.171875 -14.578125q0 -9.234375 -4.203125 -13.984375q-4.1875 -4.765625 -10.421875 -4.765625q-6.328125 0 -10.5 4.734375q-4.171875 4.734375 -4.171875 14.296875zm44.71875 0q0 -13.828125 7.6875 -20.484375q6.421875 -5.53125 15.65625 -5.53125q10.265625 0 16.78125 6.734375q6.515625 6.71875 6.515625 18.578125q0 9.609375 -2.890625 15.125q-2.875 5.5 -8.390625 8.546875q-5.5 3.046875 -12.015625 3.046875q-10.453125 0 -16.90625 -6.703125q-6.4375 -6.703125 -6.4375 -19.3125zm8.671875 0q0 9.5625 4.171875 14.328125q4.171875 4.75 10.5 4.75q6.28125 0 10.453125 -4.78125q4.171875 -4.78125 4.171875 -14.578125q0 -9.234375 -4.203125 -13.984375q-4.1875 -4.765625 -10.421875 -4.765625q-6.328125 0 -10.5 4.734375q-4.171875 4.734375 -4.171875 14.296875zm47.859375 24.890625l0 -49.78125l7.546875 0l0 6.984375q2.34375 -3.65625 6.234375 -5.875q3.890625 -2.234375 8.859375 -2.234375q5.53125 0 9.0625 2.296875q3.546875 2.296875 5.0 6.421875q5.90625 -8.71875 15.375 -8.71875q7.40625 0 11.390625 4.109375q3.984375 4.09375 3.984375 12.625l0 34.171875l-8.390625 0l0 -31.359375q0 -5.0625 -0.828125 -7.28125q-0.8125 -2.234375 -2.96875 -3.59375q-2.15625 -1.359375 -5.0625 -1.359375q-5.25 0 -8.71875 3.5q-3.46875 3.484375 -3.46875 11.171875l0 28.921875l-8.4375 0l0 -32.34375q0 -5.625 -2.0625 -8.4375q-2.0625 -2.8125 -6.75 -2.8125q-3.5625 0 -6.59375 1.875q-3.015625 1.875 -4.375 5.484375q-1.359375 3.609375 -1.359375 10.40625l0 25.828125l-8.4375 0zm95.765625 -16.921875q-0.046875 -1.6875 -0.046875 -2.53125q0 -4.96875 1.40625 -8.578125q1.03125 -2.71875 3.328125 -5.484375q1.6875 -2.015625 6.0625 -5.875q4.390625 -3.875 5.703125 -6.171875q1.3125 -2.296875 1.3125 -5.015625q0 -4.921875 -3.84375 -8.640625q-3.84375 -3.734375 -9.421875 -3.734375q-5.390625 0 -9.0 3.375q-3.609375 3.375 -4.734375 10.546875l-8.671875 -1.03125q1.171875 -9.609375 6.953125 -14.71875q5.796875 -5.109375 15.3125 -5.109375q10.078125 0 16.078125 5.484375q6.0 5.484375 6.0 13.265625q0 4.5 -2.109375 8.296875q-2.109375 3.796875 -8.25 9.234375q-4.125 3.65625 -5.390625 5.390625q-1.265625 1.734375 -1.875 3.984375q-0.609375 2.25 -0.703125 7.3125l-8.109375 0zm-0.515625 16.921875l0 -9.609375l9.609375 0l0 9.609375l-9.609375 0z" fill-rule="nonzero"/></g></svg>